PathFileType	4	(X/Y/Z)	C:\Users\Basilio\Documents\Thesis Gigler\squatting_fais\c3dfiles\076\SJ_pre4\markers_experimental.trc
DataRate	CameraRate	NumFrames	NumMarkers	Units	OrigDataRate	OrigDataStartFrame	OrigNumFrames
200.000000	200.000000	4	61	mm	200.000000	466	1864
Frame#	Time	FHD			LBHD			RBHD			C7			T10			CLAV			LSHO			LUUPA			LMUPA			LDUPA			LLEP			LMEP			LRAD			LUL			LRFIN			RSHO			RUPA1			RMUPA			RDUPA			RLEP			RMEP			RRAD			RUL			RUFIN			LASI			RASI			USACR			LSACR			RSACR			LTHI1			LTHI2			LTHI3			LTHI4			LLFC			LMFC			LTIB1			LTIB2			LTIB3			LTIB4			LLMAL			LMMAL			LHEE			LMT1			LMT2			LMT5			RTHI			RTHI2			RTHI3			RTHI4			RLFC			RMFC			RTIB1			RTIB2			RTIB3			RTIB4			RLMAL			RMMAL			RHEE			RMT1			RMT2			RMT5			
		X1	Y1	Z1	X2	Y2	Z2	X3	Y3	Z3	X4	Y4	Z4	X5	Y5	Z5	X6	Y6	Z6	X7	Y7	Z7	X8	Y8	Z8	X9	Y9	Z9	X10	Y10	Z10	X11	Y11	Z11	X12	Y12	Z12	X13	Y13	Z13	X14	Y14	Z14	X15	Y15	Z15	X16	Y16	Z16	X17	Y17	Z17	X18	Y18	Z18	X19	Y19	Z19	X20	Y20	Z20	X21	Y21	Z21	X22	Y22	Z22	X23	Y23	Z23	X24	Y24	Z24	X25	Y25	Z25	X26	Y26	Z26	X27	Y27	Z27	X28	Y28	Z28	X29	Y29	Z29	X30	Y30	Z30	X31	Y31	Z31	X32	Y32	Z32	X33	Y33	Z33	X34	Y34	Z34	X35	Y35	Z35	X36	Y36	Z36	X37	Y37	Z37	X38	Y38	Z38	X39	Y39	Z39	X40	Y40	Z40	X41	Y41	Z41	X42	Y42	Z42	X43	Y43	Z43	X44	Y44	Z44	X45	Y45	Z45	X46	Y46	Z46	X47	Y47	Z47	X48	Y48	Z48	X49	Y49	Z49	X50	Y50	Z50	X51	Y51	Z51	X52	Y52	Z52	X53	Y53	Z53	X54	Y54	Z54	X55	Y55	Z55	X56	Y56	Z56	X57	Y57	Z57	X58	Y58	Z58	X59	Y59	Z59	X60	Y60	Z60	X61	Y61	Z61	

467	2.33	-192.8697052001954	1617.2529296875	-900.5044555664065	-327.9629211425782	1531.904418945313	-989.134948730469	-305.8192443847657	1535.75634765625	-839.3582763671877	-363.6176757812501	1422.3505859375	-923.8186645507815	-391.8663940429689	1100.311157226563	-935.6990356445315	-234.3717193603516	1338.771484375	-918.2913818359377	-292.7739257812501	1366.755981445313	-1095.57177734375	-299.7932128906251	1209.188720703125	-1221.4072265625	-284.5313110351563	1165.817016601563	-1201.361450195313	-304.5867614746094	1149.606323242188	-1256.665405273438	-314.4992370605469	1100.522583007813	-1284.62353515625	-395.7818908691407	1088.339721679688	-1252.138305664063	-274.5544433593751	935.394470214844	-1099.688232421875	-321.8778686523438	917.1081542968752	-1125.4990234375	-275.1589965820313	888.3144531250002	-1160.248046875	-309.3686828613282	1356.009399414063	-753.4955444335939	-368.0164794921876	1212.401245117188	-626.2591552734376	-335.1039428710938	1174.359130859375	-624.3552856445314	-379.7519531250001	1151.993286132813	-590.2115478515626	-374.8529663085938	1082.067504882813	-569.5901489257814	-439.6949157714845	1068.342407226563	-628.3878173828126	-333.1687622070313	918.0275878906252	-742.5100097656251	-278.6344909667969	936.9161376953127	-751.3450927734376	-290.1345825195313	891.6375122070315	-697.2552490234376	-225.3407897949219	908.9824829101565	-1035.165161132813	-228.2197875976563	911.2785644531252	-825.4385986328127	-390.5776367187501	994.1973266601565	-933.8589477539065	-398.3222961425782	966.6956787109377	-962.6853027343752	-398.778289794922	964.715515136719	-906.133239746094	-316.1077880859376	769.2742919921877	-1111.078002929688	-295.9879150390626	686.5350341796876	-1113.803955078125	-247.8378448486329	683.1369628906251	-1099.735107421875	-332.0424804687501	637.8215942382814	-1105.034423828125	-345.0869140625001	477.184051513672	-1089.410400390625	-317.8789672851563	459.8913574218751	-974.6587524414065	-323.5713195800782	325.3288879394532	-1032.498291015625	-343.8605957031251	278.9675903320313	-1104.909790039063	-317.6240234375001	277.9866333007813	-1066.670166015625	-336.0535583496094	199.5539093017579	-1042.404663085938	-392.732635498047	81.54009246826173	-1109.78125	-369.4575195312501	87.08103179931642	-1026.529907226563	-449.010467529297	43.29232406616212	-1068.6279296875	-237.7379913330079	53.42942428588869	-1050.301879882813	-232.3893280029297	53.81108474731447	-1088.786254882813	-250.4271697998047	43.0266342163086	-1139.766235351563	-338.1190185546876	676.0709838867189	-753.2865600585939	-306.0438232421876	616.7894897460939	-748.2565917968751	-271.9356079101563	616.9337158203126	-754.4707031250001	-338.7137451171876	542.4048461914064	-762.3006591796876	-342.9696655273438	480.7180175781251	-765.2328491210939	-307.3932800292969	466.2020874023439	-877.708435058594	-309.9853210449219	344.7289123535157	-774.4185180664065	-384.7634582519532	268.8992614746094	-749.9343261718751	-338.3677978515626	263.5543518066407	-756.8926391601564	-324.0140686035157	215.5144958496094	-786.1577758789065	-391.5223388671876	79.9463348388672	-752.6380004882814	-363.2980041503907	89.57408905029298	-833.904235839844	-442.9809875488282	50.33615875244142	-800.382995605469	-235.1906738281251	51.72291946411134	-798.480163574219	-235.3141632080079	56.12434387207033	-753.5256958007814	-265.4596557617188	35.12028121948243	-701.7987060546876	
468	2.335	-192.0057220458985	1617.165893554688	-900.4576416015627	-327.1016845703126	1531.849243164063	-989.257507324219	-305.1801452636719	1535.9287109375	-839.450866699219	-363.0878906250001	1422.48876953125	-923.8846435546877	-392.0975341796876	1100.57373046875	-935.647644042969	-234.0461120605469	1338.641723632813	-918.2762451171877	-292.2972106933594	1366.75341796875	-1095.565185546875	-299.5729064941407	1209.2265625	-1221.344360351563	-284.4021911621094	1165.807006835938	-1201.376953125	-304.4108276367188	1149.717163085938	-1256.861206054688	-314.5022583007813	1100.620361328125	-1284.632568359375	-395.8042297363282	1088.531494140625	-1252.18798828125	-275.0038146972657	935.4980468750002	-1099.643188476563	-322.3291931152344	917.123718261719	-1125.495727539063	-275.6499938964844	888.4349365234377	-1160.216918945313	-308.9925537109376	1356.078369140625	-753.5224609375001	-367.8780212402344	1212.534423828125	-626.2207641601564	-335.0174255371094	1174.487182617188	-624.3453979492189	-379.7098999023438	1152.2109375	-590.1373901367189	-374.9476928710938	1082.247192382813	-569.5717163085939	-439.8002014160157	1068.579223632813	-628.2977294921876	-333.7043151855469	918.0588378906252	-742.5299072265626	-279.1088256835938	937.0023193359377	-751.3099975585939	-290.5472106933594	891.7388305664065	-697.2482910156251	-225.7758483886719	909.0026855468752	-1035.101440429688	-228.5961303710938	911.346862792969	-825.4317626953127	-390.940155029297	994.3560180664065	-933.8984985351565	-398.7237243652345	966.876403808594	-962.641784667969	-399.2641601562501	964.8297119140627	-906.1311645507815	-316.4497680664063	769.3423461914065	-1111.187622070313	-296.3427124023438	686.5888061523439	-1114.075927734375	-248.1197662353516	683.2286987304689	-1099.904418945313	-332.1984252929688	637.7747192382814	-1105.119506835938	-344.7460021972657	477.1091613769532	-1089.482055664063	-317.5697937011719	459.8112792968751	-974.7458496093752	-322.9317016601563	325.2042846679688	-1032.238891601563	-343.5296325683594	278.8885803222657	-1104.904418945313	-317.3208312988282	277.8889770507813	-1066.732543945313	-335.8833923339844	199.5175781250001	-1042.339721679688	-392.6502990722657	81.48445129394533	-1109.751098632813	-369.4289550781251	87.08426666259767	-1026.514526367188	-448.9665527343751	43.30185699462891	-1068.681762695313	-237.7398681640626	53.4775733947754	-1050.265625	-232.4089660644532	53.8269386291504	-1088.786743164063	-250.5077514648438	43.04350280761719	-1139.800048828125	-338.3800659179688	676.0388793945314	-753.3370971679689	-306.2096862792969	616.8599243164064	-748.1313476562501	-272.1126098632813	616.9890747070314	-754.3041381835939	-338.8563232421876	542.3671264648439	-762.2533569335939	-342.8862915039063	480.6704406738282	-765.1459960937501	-307.2586364746094	466.1041259765626	-877.632019042969	-309.8639831542969	344.6365661621094	-774.343200683594	-384.6058959960939	268.8419189453126	-749.8886108398439	-338.3109436035157	263.3572082519532	-756.8398437500001	-323.9492492675782	215.4539337158204	-786.0781860351565	-391.5029907226564	79.97549438476564	-752.5884399414064	-363.2806091308594	89.62896728515626	-833.8428955078127	-442.9664611816407	50.347713470459	-800.3935546875002	-235.1363372802735	51.66131973266603	-798.4258422851565	-235.2989349365235	56.10534286499025	-753.5716552734376	-265.4677734375001	35.14220809936524	-701.7836914062501	
469	2.34	-191.0362243652344	1616.908935546875	-900.408630371094	-326.1208801269532	1531.903198242188	-989.292419433594	-304.4547119140626	1535.927856445313	-839.4704589843752	-362.4418640136719	1422.708618164063	-923.8775024414065	-392.3244934082032	1100.784912109375	-935.620056152344	-233.5764160156251	1338.510375976563	-918.2151489257815	-291.8437805175782	1366.767211914063	-1095.497680664063	-299.4352722167969	1209.300903320313	-1221.3330078125	-284.3344421386719	1165.865234375	-1201.342895507813	-304.3633728027344	1149.757446289063	-1256.851684570313	-314.6517333984376	1100.667846679688	-1284.683349609375	-395.9038391113282	1088.939453125	-1251.907470703125	-275.6664733886719	935.6578369140627	-1099.638549804688	-322.5960388183594	917.211364746094	-1125.539916992188	-276.2455139160157	888.6107177734377	-1160.251098632813	-308.6073303222657	1356.151489257813	-753.5522460937501	-367.7425231933594	1212.74072265625	-626.1834106445314	-335.0045471191407	1174.612060546875	-624.3422851562501	-379.6318054199219	1152.45361328125	-590.1129150390626	-374.9902954101563	1082.526611328125	-569.5591430664064	-439.9297790527345	1068.7802734375	-628.3093872070314	-334.1990661621094	918.1765747070315	-742.5045166015626	-279.5661621093751	937.0855102539065	-751.3555297851564	-290.9711914062501	891.935729980469	-697.2230834960939	-225.688217163086	908.8101806640627	-1034.969604492188	-229.1552276611329	911.3668212890627	-825.3543090820315	-391.4342346191407	994.498962402344	-933.880554199219	-399.2486877441407	966.9768066406252	-962.6370239257815	-399.7548828125001	964.9219970703127	-906.0765380859377	-316.8346557617188	769.323425292969	-1111.345336914063	-296.4596862792969	686.6734008789064	-1114.099731445313	-248.3005828857422	683.3435058593751	-1100.02685546875	-332.3373718261719	637.7815551757814	-1105.224609375	-344.3348693847657	477.1155395507814	-1089.60205078125	-317.0495300292969	459.741180419922	-974.7370605468752	-322.6518554687501	325.1456298828126	-1032.208374023438	-343.2677307128907	278.6875000000001	-1104.962158203125	-317.0352172851563	277.8846740722657	-1066.7216796875	-335.7545776367188	199.4545288085938	-1042.329223632813	-392.6739196777345	81.56007385253908	-1109.749633789063	-369.4200439453126	87.0848846435547	-1026.499755859375	-448.9624023437501	43.28747940063477	-1068.64697265625	-237.7854919433594	53.44929885864259	-1050.248779296875	-232.4146118164063	53.82734298706056	-1088.799194335938	-250.5286407470704	43.06458282470704	-1139.80615234375	-338.7018127441407	676.0111083984376	-753.3533935546876	-306.4665527343751	616.9467163085939	-748.0133056640626	-272.2989196777344	617.1151123046876	-754.1320190429689	-338.9230957031251	542.3012695312501	-762.2135620117189	-342.8263549804688	480.6334228515626	-765.0647583007814	-307.1092529296876	466.030487060547	-877.5025024414065	-309.7532348632813	344.5630187988282	-774.2401123046877	-384.515594482422	268.8481445312501	-749.8173828125001	-338.2011108398438	263.2928771972657	-756.7432861328126	-323.8687438964844	215.4176330566407	-786.0268554687502	-391.5338439941407	79.95908355712892	-752.5565795898439	-363.2787170410157	89.6636199951172	-833.861022949219	-443.0042724609376	50.35214233398439	-800.3970336914065	-235.2111206054688	51.68125152587892	-798.4659423828127	-235.3204345703126	56.1282081604004	-753.5093383789064	-265.4713439941407	35.14230728149415	-701.8081665039064	
470	2.345	-190.1725616455078	1616.706298828125	-900.4195556640627	-325.3168334960938	1532.030883789063	-989.3834228515627	-303.5921020507813	1535.868774414063	-839.5049438476565	-361.8815307617188	1422.8603515625	-923.8552856445315	-392.5368957519532	1100.998168945313	-935.560729980469	-233.2768554687501	1338.4658203125	-918.2850341796877	-291.2578125000001	1366.752685546875	-1095.388671875	-299.1772766113282	1209.3173828125	-1221.261840820313	-284.2392578125001	1165.837280273438	-1201.307983398438	-304.2873229980469	1149.808715820313	-1256.838745117188	-314.6701049804688	1100.738159179688	-1284.757568359375	-396.0754394531251	1088.98095703125	-1252.330200195313	-276.2637939453126	935.6832275390627	-1099.60693359375	-323.0726013183594	917.3352050781252	-1125.516357421875	-276.7565917968751	888.7698364257815	-1160.291137695313	-308.1894531250001	1356.201538085938	-753.5933837890626	-367.5752258300782	1212.965209960938	-626.1554565429689	-334.9447021484376	1174.791748046875	-624.2955932617189	-379.5749511718751	1152.708251953125	-590.0726318359376	-375.0601196289063	1082.770385742188	-569.5439453125001	-440.0626220703126	1069.077026367188	-628.1033935546876	-334.6517944335938	918.3940429687502	-742.5766601562501	-280.0720214843751	937.163513183594	-751.3651733398439	-291.4747924804688	891.954528808594	-697.2776489257814	-226.233627319336	908.8701782226565	-1034.895263671875	-229.7065124511719	911.5074462890627	-825.3440551757815	-391.9669189453126	994.6370849609377	-933.850280761719	-399.773406982422	967.1065673828127	-962.649597167969	-400.2649841308595	965.134216308594	-906.071228027344	-317.2532348632813	769.3084716796877	-1111.3359375	-296.7979125976563	686.7197875976564	-1114.218383789063	-248.7032470703126	683.5751953125001	-1100.202392578125	-332.4036560058594	637.7564697265626	-1105.357055664063	-344.0129394531251	477.0546875000001	-1089.743041992188	-316.7027587890626	459.7933044433595	-974.7973632812502	-322.3709106445313	325.0949401855469	-1032.263305664063	-342.8652343750001	278.6729736328126	-1104.998168945313	-316.7390136718751	277.7731018066407	-1066.751708984375	-335.5341796875001	199.4416046142579	-1042.291137695313	-392.6321716308595	81.5438690185547	-1109.766235351563	-369.4199829101563	87.04837036132814	-1026.514282226563	-448.9920654296876	43.28845214843751	-1068.623901367188	-237.7603607177735	53.48115539550783	-1050.226806640625	-232.4901885986329	53.86524963378908	-1088.816162109375	-250.5168609619141	43.06621170043946	-1139.80029296875	-339.0242919921876	675.9603881835939	-753.4347534179689	-306.7228698730469	616.9551391601564	-747.9027099609376	-272.4996337890626	617.0989379882814	-753.9882812500001	-339.0090332031251	542.3040771484376	-762.1955566406251	-342.7089843750001	480.6429443359376	-764.9677124023439	-306.9292602539063	465.993377685547	-877.4620361328127	-309.6424560546876	344.4154052734376	-774.1964111328127	-384.3869018554689	268.8056030273438	-749.7793579101564	-338.0677490234376	263.2042236328126	-756.7039184570314	-323.8113098144532	215.3266296386719	-786.0377197265627	-391.524871826172	79.94591522216798	-752.5366821289064	-363.2278442382813	89.59884643554689	-833.8252563476565	-443.0063476562501	50.36293029785158	-800.3782958984377	-235.2074584960938	51.69470596313478	-798.463806152344	-235.3260955810547	56.13244247436525	-753.5312500000001	-265.4860839843751	35.17670822143555	-701.8351440429689	
